<svg xmlns="http://www.w3.org/2000/svg" viewBox="0 0 340.43 80.39">
  <g>
    <path
      d="M43.47 79.04c0 .71-.58 1.12-1.28.92L1.28 68.03C.58 67.82 0 67.07 0 66.37V23.02c0-.71.58-1.12 1.28-.91l40.9 11.93c.71.21 1.28.96 1.28 1.66v43.34ZM30.15 44.06c0-.71-.58-1.46-1.28-1.68l-15.74-4.84c-.7-.22-1.27.19-1.27.9v18.62c0 .71.57 1.47 1.27 1.68l15.74 4.84c.7.22 1.28-.19 1.28-.89V44.06Z"
      fill="#2d519e"
      strokeWidth="0"
    />
    <path
      d="m65.74 9.17 9.95 2.77c.72.21.75.73.06 1.15l-29.07 18.3c-.69.43-1.84.6-2.57.39L2.15 19.61c-.72-.21-.75-.73-.06-1.16L32.84.86c.69-.42 1.85-.6 2.57-.39l7.16 2.14.58.18c.96.24 1.1.61 1.11.81 0 .41-.41.69-.41.69L25.49 15.34c-.69.42-.67.95.03 1.16l16.01 4.67c.71.22 1.85.04 2.54-.38l18-10.79s.95-.46 1.7-.78c1.03-.44 1.97-.04 1.97-.04"
      fill="#76c8d4"
      strokeWidth="0"
    />
    <path
      d="M67.93 41.13c.01-1.12.58-1.67 1.3-2.13l8.48-5.4c.72-.45 1.66 0 1.66.98v23.74c-.06.94 0 1.54-1.49 2.56L69 67.3c-.72.45-1.12.06-1.12-.66l.05-25.52ZM67.54 23.27c0-.72.59-1.68 1.3-2.13l9.29-6.09c.71-.45 1.24.05 1.24.77l-.04 11.58c-.05.85-.43 1.51-1.21 2.02l-9.34 5.89c-.71.45-1.24.17-1.24-.54v-11.5Z"
      fill="#f8b576"
    />
    <path
      d="M99.22 27.11c0-1.05.18-2.01.53-2.87.35-.86.85-1.59 1.48-2.19.63-.6 1.38-1.06 2.25-1.39.87-.32 1.82-.48 2.85-.48s1.98.16 2.85.48c.87.33 1.62.79 2.26 1.39.63.6 1.13 1.34 1.48 2.19.36.86.53 1.82.53 2.87s-.17 2.02-.53 2.87a6.277 6.277 0 0 1-3.74 3.58c-.87.32-1.82.48-2.85.48s-1.98-.16-2.85-.48c-.87-.32-1.62-.79-2.25-1.39-.63-.6-1.13-1.33-1.48-2.19-.35-.86-.53-1.82-.53-2.87Zm3.02 0c0 .62.1 1.19.29 1.71.19.51.47.96.83 1.34.36.38.79.67 1.3.89.51.21 1.07.32 1.69.32s1.18-.1 1.69-.32a3.812 3.812 0 0 0 2.13-2.23c.2-.52.29-1.09.29-1.71s-.1-1.17-.29-1.7c-.19-.52-.47-.97-.83-1.35-.36-.38-.79-.67-1.3-.89-.5-.21-1.07-.32-1.69-.32s-1.18.1-1.69.32c-.5.21-.93.51-1.3.89-.36.38-.64.83-.83 1.35-.19.52-.29 1.09-.29 1.7ZM118.79 20.51h4.92c.57 0 1.15.04 1.72.12.58.08 1.1.24 1.56.48.46.24.83.58 1.12 1.02.29.43.43 1.01.43 1.73s-.21 1.37-.62 1.86c-.42.49-.96.84-1.65 1.05v.04c.44.06.83.18 1.18.36s.66.41.91.69c.25.28.45.61.59.98.14.37.2.77.2 1.19 0 .7-.15 1.28-.45 1.74-.3.47-.69.84-1.16 1.13-.47.29-1 .49-1.59.61-.59.12-1.18.19-1.76.19h-5.41V20.5Zm2.92 5.28h2.1c.22 0 .45-.03.66-.08.22-.05.42-.13.59-.24.18-.11.32-.26.42-.45.11-.18.16-.41.16-.67s-.06-.5-.18-.68c-.12-.18-.27-.32-.46-.42-.19-.1-.4-.17-.63-.22a4.2 4.2 0 0 0-.69-.06h-1.98v2.82Zm0 5.46h2.61c.23 0 .46-.03.68-.08.23-.05.43-.13.62-.26.19-.12.34-.29.45-.49.12-.2.18-.44.18-.73 0-.31-.08-.56-.23-.75-.16-.19-.35-.34-.59-.44-.24-.1-.49-.17-.76-.2-.28-.04-.53-.06-.77-.06h-2.2v3ZM141.07 29.3c0 .61-.06 1.2-.16 1.77-.1.57-.3 1.08-.61 1.52-.29.44-.72.8-1.28 1.06-.55.27-1.28.4-2.17.4-1.05 0-1.93-.25-2.65-.75s-1.19-1.27-1.4-2.33l2.67-.65c.04.32.19.6.44.82.26.22.54.34.87.34.34 0 .6-.08.79-.25.19-.17.32-.38.41-.62.09-.25.14-.52.16-.81.02-.29.03-.56.03-.81v-8.46h2.91v8.78ZM147.03 20.51H156v2.68h-6.06v2.46h5.73v2.68h-5.73v2.69h6.4v2.69h-9.31v-13.2ZM170.66 23.94c-.29-.35-.64-.62-1.05-.8-.42-.19-.9-.28-1.45-.28s-1.05.1-1.52.32c-.47.21-.87.51-1.21.89-.34.38-.61.83-.8 1.35-.19.52-.29 1.09-.29 1.7s.1 1.19.29 1.71c.19.51.46.96.79 1.34.34.38.73.67 1.19.89.45.21.94.32 1.46.32.6 0 1.13-.12 1.59-.37.46-.25.84-.6 1.13-1.05l2.42 1.81c-.56.78-1.26 1.36-2.12 1.73-.86.37-1.74.56-2.65.56-1.03 0-1.98-.16-2.85-.48-.87-.32-1.62-.79-2.26-1.39-.64-.6-1.13-1.33-1.48-2.19-.36-.86-.53-1.82-.53-2.87s.18-2.01.53-2.87c.35-.86.84-1.59 1.48-2.19.63-.6 1.39-1.06 2.26-1.39.87-.32 1.82-.48 2.85-.48.37 0 .76.03 1.16.1.4.07.81.18 1.19.33.39.15.77.35 1.13.6.36.25.68.55.97.91l-2.24 1.83ZM180.71 23.09h-3.77v-2.57h10.45v2.57h-3.77v10.63h-2.91V23.09ZM207.38 23.95c-.29-.35-.64-.61-1.05-.8-.42-.19-.9-.28-1.45-.28s-1.05.11-1.52.31c-.47.22-.87.51-1.21.89-.34.38-.61.83-.8 1.35-.19.52-.29 1.09-.29 1.7s.1 1.19.29 1.71c.19.52.46.97.79 1.35.34.38.73.67 1.18.88.45.21.94.32 1.46.32.6 0 1.13-.12 1.59-.37.46-.25.84-.6 1.14-1.05l2.42 1.81c-.56.78-1.27 1.36-2.13 1.73-.86.37-1.74.56-2.65.56-1.04 0-1.99-.17-2.85-.49-.87-.32-1.62-.78-2.26-1.39-.63-.6-1.13-1.33-1.48-2.19-.35-.86-.53-1.82-.53-2.87s.18-2.01.53-2.87c.36-.86.85-1.59 1.48-2.19.63-.6 1.38-1.06 2.26-1.39.87-.32 1.82-.48 2.85-.48.37 0 .76.03 1.16.1.4.07.8.18 1.2.33.39.15.76.35 1.13.6.36.25.69.55.97.91l-2.24 1.83ZM214.16 27.12c0-1.05.18-2.01.53-2.87.36-.86.85-1.59 1.48-2.19.63-.6 1.38-1.06 2.26-1.39.87-.32 1.82-.48 2.85-.48s1.98.16 2.85.48c.87.33 1.62.79 2.26 1.39.63.61 1.13 1.34 1.48 2.19.35.86.53 1.82.53 2.87s-.18 2.01-.53 2.87c-.36.86-.85 1.59-1.48 2.19-.63.61-1.39 1.07-2.26 1.39-.87.32-1.82.49-2.85.49s-1.98-.17-2.85-.49c-.87-.32-1.62-.78-2.26-1.39-.63-.6-1.13-1.33-1.48-2.19-.35-.86-.53-1.82-.53-2.87Zm3.02 0c0 .62.1 1.19.29 1.71.19.52.47.97.83 1.35.36.38.79.67 1.29.88.5.21 1.07.32 1.69.32s1.18-.1 1.69-.32c.5-.21.94-.51 1.29-.88.36-.38.64-.83.83-1.35.19-.52.29-1.08.29-1.71s-.1-1.17-.29-1.7c-.19-.52-.47-.97-.83-1.35-.36-.38-.79-.67-1.29-.89-.51-.21-1.07-.31-1.69-.31s-1.19.11-1.69.31c-.5.22-.93.51-1.29.89s-.64.83-.83 1.35c-.19.52-.29 1.09-.29 1.7ZM233.74 20.52h4.4l3.04 8.62h.04l3.06-8.62h4.38v13.21h-2.91V23.6h-.04l-3.47 10.13h-2.22l-3.34-10.13h-.04v10.13h-2.91V20.52ZM254.7 20.52h4.9c.68 0 1.33.06 1.94.18a4.2 4.2 0 0 1 1.59.65c.46.3.81.71 1.08 1.23s.4 1.17.4 1.95-.13 1.42-.38 1.94-.59.94-1.02 1.25c-.44.31-.95.53-1.55.66-.59.13-1.24.19-1.94.19h-2.12v5.15h-2.91V20.51Zm2.91 5.59h1.94c.26 0 .52-.02.76-.08.24-.05.46-.13.65-.25s.35-.28.47-.49c.12-.21.18-.46.18-.77 0-.34-.08-.6-.23-.81-.16-.2-.36-.36-.6-.48-.24-.11-.51-.18-.81-.21-.3-.03-.58-.05-.86-.05h-1.49v3.13ZM280.94 28.62c0 .79-.12 1.51-.36 2.17-.23.66-.58 1.23-1.05 1.72-.47.48-1.05.87-1.75 1.14-.7.27-1.5.41-2.41.41s-1.72-.14-2.42-.41c-.7-.27-1.28-.66-1.74-1.14-.47-.49-.82-1.06-1.05-1.72a6.54 6.54 0 0 1-.35-2.17v-8.11h2.91v8c0 .41.06.79.2 1.14.13.34.31.65.55.9.23.26.52.45.85.6.33.14.69.21 1.07.21s.74-.07 1.06-.21c.33-.14.6-.34.84-.6.24-.25.42-.56.55-.9.13-.35.2-.73.2-1.14v-8h2.91v8.11ZM289.54 23.09h-3.77v-2.57h10.44v2.57h-3.77v10.63h-2.91V23.09ZM301.01 20.52h2.91v13.21h-2.91V20.52ZM309.92 20.52h3.95l5.61 9.18h.04v-9.18h2.91v13.21h-3.8l-5.76-9.4h-.04v9.4h-2.91V20.52ZM340.43 32.79c-.86.44-1.75.77-2.69.97-.93.2-1.88.3-2.85.3-1.03 0-1.98-.17-2.86-.49-.87-.32-1.62-.78-2.25-1.39-.64-.6-1.13-1.33-1.49-2.19-.35-.86-.53-1.82-.53-2.87s.18-2.01.53-2.87c.35-.86.85-1.59 1.49-2.19.63-.6 1.38-1.06 2.25-1.39.87-.32 1.82-.48 2.86-.48s2.03.13 2.92.38c.89.26 1.67.69 2.34 1.31l-2.05 2.24c-.4-.41-.85-.72-1.34-.94-.5-.21-1.12-.31-1.87-.31-.62 0-1.18.11-1.69.31-.5.22-.94.51-1.3.89-.36.38-.64.83-.83 1.35-.19.52-.28 1.09-.28 1.7s.09 1.19.28 1.71c.19.52.47.97.83 1.35.36.38.79.67 1.3.88.5.21 1.07.32 1.69.32s1.18-.07 1.64-.21c.46-.14.83-.29 1.11-.44v-2.15h-2.37V25.9h5.17v6.9ZM101.13 47.95v-.71h6.49v.71h-2.85v7.64h-.78v-7.64h-2.85ZM116.44 47.25v.71h-4.33v2.97h4.06v.71h-4.06v3.26h4.52v.71h-5.3v-8.35h5.11ZM126.23 55.46c-.53.24-1.1.35-1.71.35s-1.22-.11-1.75-.32c-.53-.22-.98-.52-1.36-.91-.38-.39-.67-.85-.88-1.39s-.32-1.13-.32-1.76.11-1.22.32-1.76.51-1 .88-1.39.83-.69 1.36-.91 1.11-.33 1.75-.33c.57 0 1.1.1 1.59.3.49.2.92.54 1.29 1.01l-.64.53c-.26-.39-.59-.68-1-.86-.41-.18-.82-.27-1.24-.27-.54 0-1.03.09-1.47.28-.44.19-.81.45-1.11.78s-.54.72-.71 1.17c-.17.45-.25.93-.25 1.45s.08 1 .25 1.45c.17.45.4.84.71 1.17.31.33.68.59 1.11.78.44.19.93.28 1.47.28a3.126 3.126 0 0 0 1.33-.32c.22-.11.42-.24.62-.4s.37-.36.52-.58l.64.48c-.4.54-.86.93-1.39 1.17ZM132.25 47.25v3.68h4.67v-3.68h.78v8.35h-.78v-3.96h-4.67v3.96h-.78v-8.35h.78ZM143.41 47.25l5.08 7.31h.02v-7.31h.78v8.35h-1l-5.08-7.31h-.02v7.31h-.78v-8.35h1ZM153.78 49.66c.21-.53.51-1 .88-1.39s.83-.69 1.36-.91 1.11-.33 1.75-.33 1.22.11 1.75.33.98.52 1.36.91.67.85.88 1.39.32 1.12.32 1.76-.11 1.22-.32 1.76-.51 1-.88 1.39c-.38.39-.83.69-1.36.91-.53.22-1.11.32-1.75.32s-1.22-.11-1.75-.32c-.53-.22-.98-.52-1.36-.91-.38-.39-.67-.85-.88-1.39s-.32-1.13-.32-1.76.11-1.22.32-1.76Zm.71 3.21c.17.45.4.84.71 1.17.31.33.68.59 1.11.78.44.19.93.28 1.47.28s1.03-.09 1.47-.28c.44-.19.81-.45 1.11-.78.31-.33.54-.72.71-1.17s.25-.93.25-1.45-.08-1-.25-1.45c-.17-.45-.4-.84-.71-1.17s-.68-.59-1.11-.78c-.44-.19-.93-.28-1.47-.28s-1.03.09-1.47.28c-.44.19-.81.45-1.11.78s-.54.72-.71 1.17c-.17.45-.25.93-.25 1.45s.08 1 .25 1.45ZM167.05 47.25v7.64h3.89v.71h-4.67v-8.35h.78ZM174.36 49.66c.21-.53.51-1 .88-1.39s.83-.69 1.36-.91 1.11-.33 1.75-.33 1.22.11 1.75.33.98.52 1.36.91.67.85.88 1.39.32 1.12.32 1.76-.11 1.22-.32 1.76-.51 1-.88 1.39c-.38.39-.83.69-1.36.91-.53.22-1.11.32-1.75.32s-1.22-.11-1.75-.32c-.53-.22-.98-.52-1.36-.91-.38-.39-.67-.85-.88-1.39s-.32-1.13-.32-1.76.11-1.22.32-1.76Zm.71 3.21c.17.45.4.84.71 1.17.31.33.68.59 1.11.78.44.19.93.28 1.47.28s1.03-.09 1.47-.28c.44-.19.81-.45 1.11-.78.31-.33.54-.72.71-1.17s.25-.93.25-1.45-.08-1-.25-1.45c-.17-.45-.4-.84-.71-1.17s-.68-.59-1.11-.78c-.44-.19-.93-.28-1.47-.28s-1.03.09-1.47.28c-.44.19-.81.45-1.11.78s-.54.72-.71 1.17c-.17.45-.25.93-.25 1.45s.08 1 .25 1.45ZM192.22 55.64c-.52.11-1.06.17-1.6.17-.64 0-1.22-.11-1.75-.32-.53-.22-.98-.52-1.36-.91-.38-.39-.67-.85-.88-1.39s-.32-1.13-.32-1.76.11-1.22.32-1.76.51-1 .88-1.39.83-.69 1.36-.91 1.11-.33 1.75-.33c1.24 0 2.25.39 3.01 1.16l-.57.59a2.42 2.42 0 0 0-.47-.42c-.18-.13-.39-.24-.6-.33a3.835 3.835 0 0 0-1.38-.29c-.54 0-1.03.09-1.47.28-.44.19-.81.45-1.11.78s-.54.72-.71 1.17c-.17.45-.25.93-.25 1.45s.08 1 .25 1.45c.17.45.4.84.71 1.17.31.33.68.59 1.11.78.44.19.93.28 1.47.28.45 0 .87-.04 1.26-.11s.75-.2 1.07-.39V51.8h-2v-.71h2.78v3.96c-.49.27-.99.47-1.52.58ZM197.23 47.25h.93l2.52 3.96 2.58-3.96h.87L201.06 52v3.6h-.78V52l-3.07-4.75ZM212.12 47.95v-.71h6.49v.71h-2.85v7.64h-.78v-7.64h-2.85ZM223.1 47.25v3.68h4.67v-3.68h.78v8.35h-.78v-3.96h-4.67v3.96h-.78v-8.35h.78ZM236.62 47.25l3.52 8.35h-.87l-.91-2.22h-4.42L233 55.6h-.81l3.64-8.35h.8Zm-2.38 5.42h3.83l-1.89-4.58-1.95 4.58ZM241.95 47.95v-.71h6.49v.71h-2.85v7.64h-.78v-7.64h-2.85ZM262.74 47.25v.71h-4.33v2.97h4.06v.71h-4.06v3.26h4.52v.71h-5.3v-8.35h5.11ZM268.14 47.25l3.04 7.01 3.04-7.01h1.11v8.35h-.78v-7.36h-.02l-3.18 7.36h-.34l-3.23-7.36h-.02v7.36h-.78v-8.35h1.17ZM282.37 47.25c.29 0 .59.03.91.1.32.07.61.18.87.35.26.17.48.39.65.68s.25.65.25 1.08c0 .38-.07.7-.21.98-.14.27-.32.5-.55.68-.23.18-.5.31-.8.4s-.62.13-.95.13h-1.8v3.96h-.78v-8.35h2.41Zm.14 3.68c.22 0 .44-.03.65-.08.21-.05.4-.13.57-.25.17-.11.3-.27.4-.45.1-.19.15-.42.15-.7s-.05-.5-.16-.68c-.11-.19-.24-.34-.41-.47a1.82 1.82 0 0 0-.58-.27c-.22-.06-.44-.08-.66-.08h-1.72v2.97h1.77ZM288.93 49.66c.21-.53.51-1 .88-1.39.38-.39.83-.69 1.36-.91.53-.22 1.11-.33 1.75-.33s1.22.11 1.75.33c.53.22.99.52 1.36.91.38.39.67.85.88 1.39s.32 1.12.32 1.76-.11 1.22-.32 1.76-.51 1-.88 1.39c-.38.39-.83.69-1.36.91-.53.22-1.11.32-1.75.32s-1.22-.11-1.75-.32c-.53-.22-.99-.52-1.36-.91a4.07 4.07 0 0 1-.88-1.39c-.21-.54-.32-1.13-.32-1.76s.11-1.22.32-1.76Zm.71 3.21c.17.45.4.84.71 1.17.31.33.68.59 1.12.78.44.19.93.28 1.47.28s1.03-.09 1.47-.28c.44-.19.81-.45 1.12-.78.31-.33.54-.72.71-1.17s.25-.93.25-1.45-.08-1-.25-1.45c-.17-.45-.4-.84-.71-1.17s-.68-.59-1.12-.78c-.44-.19-.93-.28-1.47-.28s-1.03.09-1.47.28c-.44.19-.81.45-1.12.78-.31.33-.54.72-.71 1.17-.17.45-.25.93-.25 1.45s.08 1 .25 1.45ZM301.13 47.25l2.08 7.4h.02l2.11-7.4h.99l2.11 7.4h.02l2.08-7.4h.8l-2.43 8.35h-.96l-2.11-7.43h-.02l-2.11 7.43h-.96l-2.43-8.35h.8ZM320.08 47.25v.71h-4.33v2.97h4.06v.71h-4.06v3.26h4.52v.71h-5.3v-8.35h5.11ZM326.58 47.25c.11 0 .26 0 .45.01.19 0 .39.03.61.07.22.04.44.1.67.19.23.09.43.21.61.38s.33.37.45.62.18.56.18.92c0 .4-.07.73-.21.99-.14.26-.31.47-.52.63s-.44.28-.69.36c-.25.08-.49.13-.72.17l2.43 4.01h-.88l-2.35-3.96h-1.45v3.96h-.78v-8.35h2.19Zm.24 3.68c.41 0 .74-.05 1-.15.26-.1.45-.23.6-.38s.24-.31.29-.48c.05-.17.08-.33.08-.47s-.03-.3-.08-.47-.15-.33-.29-.48-.34-.28-.6-.38c-.25-.1-.59-.15-1-.15h-1.65v2.97h1.65ZM334.82 54.84c.33.17.7.26 1.12.26.26 0 .5-.04.73-.12.23-.08.43-.19.6-.33a1.51 1.51 0 0 0 .55-1.19c0-.29-.06-.53-.18-.72-.12-.19-.29-.34-.49-.47-.21-.12-.43-.23-.69-.31s-.52-.17-.79-.26-.54-.18-.79-.29c-.26-.11-.49-.25-.69-.43-.2-.18-.37-.4-.49-.67s-.18-.6-.18-.99c0-.37.07-.7.22-.98s.34-.53.59-.72c.25-.19.53-.34.86-.44.32-.1.66-.15 1.01-.15.46 0 .88.08 1.27.24.39.16.73.43 1.01.81l-.67.48c-.2-.28-.43-.48-.69-.62-.26-.14-.58-.21-.94-.21-.25 0-.49.03-.72.1-.23.07-.43.17-.6.29-.17.13-.3.29-.41.49-.1.2-.15.43-.15.7 0 .42.11.74.32.96.21.22.48.4.8.53.32.13.67.24 1.04.34.37.1.72.23 1.04.4.32.17.58.4.8.69.21.29.32.7.32 1.22 0 .38-.07.71-.21 1s-.33.54-.57.74c-.24.2-.52.35-.83.45-.31.1-.64.15-.98.15-.55 0-1.06-.1-1.52-.29s-.86-.52-1.19-.97l.74-.5c.2.35.47.62.8.79Z"
      fill="#838083"
    />
  </g>
</svg>
